<svg xmlns="http://www.w3.org/2000/svg" width="256.0485534667969" height="206.28277587890625" viewBox="-195.1178436279297 -151.07586669921875 256.0485534667969 206.28277587890625"><title>Neo4j Graph Visualization</title><desc>Created using Neo4j (http://www.neo4j.com/)</desc><g class="layer relationships"><g class="relationship" transform="translate(-166.11784587056786 -105.25258461220703) rotate(430.88391000613126)"><path class="outline" fill="#A5ABB6" stroke="none" d="M 21.40063509461097,12.933012701892217 L 21.90063509461097,12.06698729810778 A 87.60948149546284 87.60948149546284 0 0 0 53.94498905333012,23.011507602048397 L 53.81075259183912,24.00245693092772 A 88.60948149546284 88.60948149546284 0 0 1 21.40063509461097,12.933012701892217 Z M 73.21139584131508,24.485946144332516 L 73.12668684773682,23.489540410503693 A 87.60948149546284 87.60948149546284 0 0 0 105.67642658747245,14.154788769965826 L 104.30770313210535,11.485220246266174 L 112.13354038533282,11.40602879472586 L 107.5013911946286,17.71421346823203 L 106.13266773926149,15.044644944532376 A 88.60948149546284 88.60948149546284 0 0 1 73.21139584131508,24.485946144332516"/><text text-anchor="middle" pointer-events="none" font-size="8px" fill="#000000" x="63.51025474746102" y="27.277083818215388" font-family="sans-serif">trek</text></g><g class="relationship" transform="translate(-122.11066485461089 21.71724475645265) rotate(361.68824072402765)"><path class="outline" fill="#A5ABB6" stroke="none" d="M 25 0.5 L 63.02837173735195 0.5 L 63.02837173735195 -0.5 L 25 -0.5 Z M 82.36430923735195 0.5 L 120.3926809747039 0.5 L 120.3926809747039 3.5 L 127.3926809747039 0 L 120.3926809747039 -3.5 L 120.3926809747039 -0.5 L 82.36430923735195 -0.5 Z"/><text text-anchor="middle" pointer-events="none" font-size="8px" fill="#000000" x="72.69634048735195" y="3" font-family="sans-serif">trek</text></g><g class="relationship" transform="translate(30.215866680136816 26.206900116431857) rotate(270.6625742675266)"><path class="outline" fill="#A5ABB6" stroke="none" d="M 25 0.5 L 60.97836993650296 0.5 L 60.97836993650296 -0.5 L 25 -0.5 Z M 80.31430743650296 0.5 L 116.29267737300592 0.5 L 116.29267737300592 3.5 L 123.29267737300592 0 L 116.29267737300592 -3.5 L 116.29267737300592 -0.5 L 80.31430743650296 -0.5 Z"/><text text-anchor="middle" pointer-events="none" font-size="8px" fill="#000000" x="70.64633868650296" y="3" font-family="sans-serif">trek</text></g><g class="relationship" transform="translate(-166.11784587056786 -105.25258461220703) rotate(430.88391000613126)"><path class="outline" fill="#A5ABB6" stroke="none" d="M 25 0.5 L 32.824737999748294 0.5 L 32.824737999748294 -0.5 L 25 -0.5 Z M 94.5552067497483 0.5 L 102.37994474949659 0.5 L 102.37994474949659 3.5 L 109.37994474949659 0 L 102.37994474949659 -3.5 L 102.37994474949659 -0.5 L 94.5552067497483 -0.5 Z"/><text text-anchor="middle" pointer-events="none" font-size="8px" fill="#000000" x="63.689972374748294" y="3" font-family="sans-serif">PublicTransport</text></g><g class="relationship" transform="translate(-166.11784587056786 -105.25258461220703) rotate(430.88391000613126)"><path class="outline" fill="#A5ABB6" stroke="none" d="M 21.40063509461097,-12.933012701892217 L 21.90063509461097,-12.06698729810778 A 87.60948149546284 87.60948149546284 0 0 1 52.62813713335135,-22.82293161550922 L 52.47886974258762,-23.81172848345257 A 88.60948149546284 88.60948149546284 0 0 0 21.40063509461097,-12.933012701892217 Z M 74.55112583003218,-24.36179775675238 L 74.45129734849273,-23.36679309632433 A 87.60948149546284 87.60948149546284 0 0 1 105.67642658747245,-14.154788769965826 L 104.30770313210535,-11.485220246266174 L 112.13354038533282,-11.40602879472586 L 107.5013911946286,-17.71421346823203 L 106.13266773926149,-15.044644944532376 A 88.60948149546284 88.60948149546284 0 0 0 74.55112583003218,-24.36179775675238"/><text text-anchor="middle" pointer-events="none" font-size="8px" fill="#000000" x="63.510254747461026" y="-21.277083818215388" font-family="sans-serif">road</text></g></g><g class="layer nodes"><g class="node" aria-label="graph-node341" transform="translate(-166.11784587056786,-105.25258461220703)"><circle class="outline" cx="0" cy="0" r="25" fill="#57C7E3" stroke="#23b3d7" stroke-width="2px"/><text class="caption" text-anchor="middle" pointer-events="none" x="0" y="5" font-size="10px" fill="#2A2C34" font-family="sans-serif"> Darjeeling</text></g><g class="node" aria-label="graph-node343" transform="translate(31.93070018142575,-122.07586189088065)"><circle class="outline" cx="0" cy="0" r="25" fill="#F16667" stroke="#eb2728" stroke-width="2px"/><text class="caption" text-anchor="middle" pointer-events="none" x="0" y="5" font-size="10px" fill="#FFFFFF" font-family="sans-serif"> Sandakp…</text></g><g class="node" aria-label="graph-node340" transform="translate(-122.11066485461089,21.71724475645265)"><circle class="outline" cx="0" cy="0" r="25" fill="#57C7E3" stroke="#23b3d7" stroke-width="2px"/><text class="caption" text-anchor="middle" pointer-events="none" x="0" y="5" font-size="10px" fill="#2A2C34" font-family="sans-serif"> Rimbik</text></g><g class="node" aria-label="graph-node342" transform="translate(30.215866680136816,26.206900116431857)"><circle class="outline" cx="0" cy="0" r="25" fill="#D9C8AE" stroke="#c0a378" stroke-width="2px"/><text class="caption" text-anchor="middle" pointer-events="none" x="0" y="5" font-size="10px" fill="#2A2C34" font-family="sans-serif"> BhikeBh…</text></g></g></svg>