<svg xmlns="http://www.w3.org/2000/svg" width="887.9639282226562" height="691.5126953125" viewBox="-430.8633728027344 -304.9901123046875 887.9639282226562 691.5126953125"><title>Neo4j Graph Visualization</title><desc>Created using Neo4j (http://www.neo4j.com/)</desc><g class="layer relationships"><g class="relationship" transform="translate(-261.56419561485114 103.35955709849767) rotate(338.16786470187446)"><path class="outline" fill="#A5ABB6" stroke="none" d="M 25 0.5 L 100.77708475204984 0.5 L 100.77708475204984 -0.5 L 25 -0.5 Z M 135.22239725204986 0.5 L 210.9994820040997 0.5 L 210.9994820040997 3.5 L 217.9994820040997 0 L 210.9994820040997 -3.5 L 210.9994820040997 -0.5 L 135.22239725204986 -0.5 Z"/><text text-anchor="middle" pointer-events="none" font-size="8px" fill="#000000" x="117.99974100204984" y="3" font-family="sans-serif">ORIGIN</text></g><g class="relationship" transform="translate(-261.56419561485114 103.35955709849767) rotate(214.95690906617858)"><path class="outline" fill="#A5ABB6" stroke="none" d="M 25 0.5 L 52.496085919730035 0.5 L 52.496085919730035 -0.5 L 25 -0.5 Z M 111.68749216973004 0.5 L 139.18357808946007 0.5 L 139.18357808946007 3.5 L 146.18357808946007 0 L 139.18357808946007 -3.5 L 139.18357808946007 -0.5 L 111.68749216973004 -0.5 Z"/><text text-anchor="middle" pointer-events="none" font-size="8px" fill="#000000" x="82.09178904473004" y="3" transform="rotate(180 82.09178904473004 0)" font-family="sans-serif">DESTINATION</text></g><g class="relationship" transform="translate(103.4409825303432 99.25307699229177) rotate(211.7433756726822)"><path class="outline" fill="#A5ABB6" stroke="none" d="M 25 0.5 L 61.25765387423512 0.5 L 61.25765387423512 -0.5 L 25 -0.5 Z M 95.70296637423512 0.5 L 131.96062024847024 0.5 L 131.96062024847024 3.5 L 138.96062024847024 0 L 131.96062024847024 -3.5 L 131.96062024847024 -0.5 L 95.70296637423512 -0.5 Z"/><text text-anchor="middle" pointer-events="none" font-size="8px" fill="#000000" x="78.48031012423512" y="3" transform="rotate(180 78.48031012423512 0)" font-family="sans-serif">ORIGIN</text></g><g class="relationship" transform="translate(103.4409825303432 99.25307699229177) rotate(391.163760794941)"><path class="outline" fill="#A5ABB6" stroke="none" d="M 25 0.5 L 50.16324546137888 0.5 L 50.16324546137888 -0.5 L 25 -0.5 Z M 109.35465171137888 0.5 L 134.51789717275776 0.5 L 134.51789717275776 3.5 L 141.51789717275776 0 L 134.51789717275776 -3.5 L 134.51789717275776 -0.5 L 109.35465171137888 -0.5 Z"/><text text-anchor="middle" pointer-events="none" font-size="8px" fill="#000000" x="79.75894858637888" y="3" font-family="sans-serif">DESTINATION</text></g><g class="relationship" transform="translate(-35.925492392248714 239.4790539321728) rotate(269.98285399232486)"><path class="outline" fill="#A5ABB6" stroke="none" d="M 25 0.5 L 92.52145779383454 0.5 L 92.52145779383454 -0.5 L 25 -0.5 Z M 126.96677029383454 0.5 L 194.48822808766909 0.5 L 194.48822808766909 3.5 L 201.48822808766909 0 L 194.48822808766909 -3.5 L 194.48822808766909 -0.5 L 126.96677029383454 -0.5 Z"/><text text-anchor="middle" pointer-events="none" font-size="8px" fill="#000000" x="109.74411404383454" y="3" transform="rotate(180 109.74411404383454 0)" font-family="sans-serif">ORIGIN</text></g><g class="relationship" transform="translate(-35.925492392248714 239.4790539321728) rotate(510.9554088359305)"><path class="outline" fill="#A5ABB6" stroke="none" d="M 25 0.5 L 49.918085461124335 0.5 L 49.918085461124335 -0.5 L 25 -0.5 Z M 109.10949171112433 0.5 L 134.02757717224867 0.5 L 134.02757717224867 3.5 L 141.02757717224867 0 L 134.02757717224867 -3.5 L 134.02757717224867 -0.5 L 109.10949171112433 -0.5 Z"/><text text-anchor="middle" pointer-events="none" font-size="8px" fill="#000000" x="79.51378858612433" y="3" transform="rotate(180 79.51378858612433 0)" font-family="sans-serif">DESTINATION</text></g><g class="relationship" transform="translate(119.10856807342903 197.28057729262068) rotate(229.9153810023344)"><path class="outline" fill="#A5ABB6" stroke="none" d="M 25 0.5 L 99.71331108707989 0.5 L 99.71331108707989 -0.5 L 25 -0.5 Z M 134.1586235870799 0.5 L 208.87193467415977 0.5 L 208.87193467415977 3.5 L 215.87193467415977 0 L 208.87193467415977 -3.5 L 208.87193467415977 -0.5 L 134.1586235870799 -0.5 Z"/><text text-anchor="middle" pointer-events="none" font-size="8px" fill="#000000" x="116.93596733707989" y="3" transform="rotate(180 116.93596733707989 0)" font-family="sans-serif">ORIGIN</text></g><g class="relationship" transform="translate(119.10856807342903 197.28057729262068) rotate(477.70966944487833)"><path class="outline" fill="#A5ABB6" stroke="none" d="M 25 0.5 L 57.404299640029436 0.5 L 57.404299640029436 -0.5 L 25 -0.5 Z M 116.59570589002944 0.5 L 149.00000553005887 0.5 L 149.00000553005887 3.5 L 156.00000553005887 0 L 149.00000553005887 -3.5 L 149.00000553005887 -0.5 L 116.59570589002944 -0.5 Z"/><text text-anchor="middle" pointer-events="none" font-size="8px" fill="#000000" x="87.00000276502944" y="3" transform="rotate(180 87.00000276502944 0)" font-family="sans-serif">DESTINATION</text></g><g class="relationship" transform="translate(119.14995843647071 -53.82400393359684) rotate(516.7001215330927)"><path class="outline" fill="#A5ABB6" stroke="none" d="M 25 0.5 L 63.73686682490043 0.5 L 63.73686682490043 -0.5 L 25 -0.5 Z M 98.18217932490043 0.5 L 136.91904614980086 0.5 L 136.91904614980086 3.5 L 143.91904614980086 0 L 136.91904614980086 -3.5 L 136.91904614980086 -0.5 L 98.18217932490043 -0.5 Z"/><text text-anchor="middle" pointer-events="none" font-size="8px" fill="#000000" x="80.95952307490043" y="3" transform="rotate(180 80.95952307490043 0)" font-family="sans-serif">ORIGIN</text></g><g class="relationship" transform="translate(119.14995843647071 -53.82400393359684) rotate(317.83433028592134)"><path class="outline" fill="#A5ABB6" stroke="none" d="M 25 0.5 L 45.46879491603194 0.5 L 45.46879491603194 -0.5 L 25 -0.5 Z M 104.66020116603194 0.5 L 125.12899608206388 0.5 L 125.12899608206388 3.5 L 132.12899608206388 0 L 125.12899608206388 -3.5 L 125.12899608206388 -0.5 L 104.66020116603194 -0.5 Z"/><text text-anchor="middle" pointer-events="none" font-size="8px" fill="#000000" x="75.06449804103194" y="3" font-family="sans-serif">DESTINATION</text></g><g class="relationship" transform="translate(-197.6519254905681 27.10263759981843) rotate(355.01107908503457)"><path class="outline" fill="#A5ABB6" stroke="none" d="M 25 0.5 L 60.41405531028511 0.5 L 60.41405531028511 -0.5 L 25 -0.5 Z M 94.85936781028511 0.5 L 130.27342312057021 0.5 L 130.27342312057021 3.5 L 137.27342312057021 0 L 130.27342312057021 -3.5 L 130.27342312057021 -0.5 L 94.85936781028511 -0.5 Z"/><text text-anchor="middle" pointer-events="none" font-size="8px" fill="#000000" x="77.63671156028511" y="3" font-family="sans-serif">ORIGIN</text></g><g class="relationship" transform="translate(-197.6519254905681 27.10263759981843) rotate(186.1001526678391)"><path class="outline" fill="#A5ABB6" stroke="none" d="M 25 0.5 L 69.59147280234373 0.5 L 69.59147280234373 -0.5 L 25 -0.5 Z M 128.78287905234373 0.5 L 173.37435185468746 0.5 L 173.37435185468746 3.5 L 180.37435185468746 0 L 173.37435185468746 -3.5 L 173.37435185468746 -0.5 L 128.78287905234373 -0.5 Z"/><text text-anchor="middle" pointer-events="none" font-size="8px" fill="#000000" x="99.18717592734373" y="3" transform="rotate(180 99.18717592734373 0)" font-family="sans-serif">DESTINATION</text></g><g class="relationship" transform="translate(-13.748555521106278 -200.04450402653092) rotate(455.96110586955933)"><path class="outline" fill="#A5ABB6" stroke="none" d="M 25 0.5 L 86.37412639876752 0.5 L 86.37412639876752 -0.5 L 25 -0.5 Z M 120.81943889876752 0.5 L 182.19356529753503 0.5 L 182.19356529753503 3.5 L 189.19356529753503 0 L 182.19356529753503 -3.5 L 182.19356529753503 -0.5 L 120.81943889876752 -0.5 Z"/><text text-anchor="middle" pointer-events="none" font-size="8px" fill="#000000" x="103.59678264876752" y="3" transform="rotate(180 103.59678264876752 0)" font-family="sans-serif">ORIGIN</text></g><g class="relationship" transform="translate(-13.748555521106278 -200.04450402653092) rotate(221.38763303289966)"><path class="outline" fill="#A5ABB6" stroke="none" d="M 25 0.5 L 26.338786868084902 0.5 L 26.338786868084902 -0.5 L 25 -0.5 Z M 81.5301931180849 0.5 L 82.8689799861698 0.5 L 82.8689799861698 3.5 L 89.8689799861698 0 L 82.8689799861698 -3.5 L 82.8689799861698 -0.5 L 81.5301931180849 -0.5 Z"/><text text-anchor="middle" pointer-events="none" font-size="8px" fill="#000000" x="53.9344899930849" y="3" transform="rotate(180 53.9344899930849 0)" font-family="sans-serif">DESTINATI…</text></g><g class="relationship" transform="translate(81.28969868655936 -221.1446006679536) rotate(476.6071751698186)"><path class="outline" fill="#A5ABB6" stroke="none" d="M 25 0.5 L 110.21119864694367 0.5 L 110.21119864694367 -0.5 L 25 -0.5 Z M 144.65651114694367 0.5 L 229.86770979388734 0.5 L 229.86770979388734 3.5 L 236.86770979388734 0 L 229.86770979388734 -3.5 L 229.86770979388734 -0.5 L 144.65651114694367 -0.5 Z"/><text text-anchor="middle" pointer-events="none" font-size="8px" fill="#000000" x="127.43385489694367" y="3" transform="rotate(180 127.43385489694367 0)" font-family="sans-serif">ORIGIN</text></g><g class="relationship" transform="translate(81.28969868655936 -221.1446006679536) rotate(196.8383090460286)"><path class="outline" fill="#A5ABB6" stroke="none" d="M 25 0.5 L 61.572677078191134 0.5 L 61.572677078191134 -0.5 L 25 -0.5 Z M 120.76408332819113 0.5 L 157.33676040638227 0.5 L 157.33676040638227 3.5 L 164.33676040638227 0 L 157.33676040638227 -3.5 L 157.33676040638227 -0.5 L 120.76408332819113 -0.5 Z"/><text text-anchor="middle" pointer-events="none" font-size="8px" fill="#000000" x="91.16838020319113" y="3" transform="rotate(180 91.16838020319113 0)" font-family="sans-serif">DESTINATION</text></g><g class="relationship" transform="translate(-234.75503488031714 -65.15774552094857) rotate(381.4636175409679)"><path class="outline" fill="#A5ABB6" stroke="none" d="M 25 0.5 L 86.0638597339408 0.5 L 86.0638597339408 -0.5 L 25 -0.5 Z M 120.5091722339408 0.5 L 181.5730319678816 0.5 L 181.5730319678816 3.5 L 188.5730319678816 0 L 181.5730319678816 -3.5 L 181.5730319678816 -0.5 L 120.5091722339408 -0.5 Z"/><text text-anchor="middle" pointer-events="none" font-size="8px" fill="#000000" x="103.2865159839408" y="3" font-family="sans-serif">ORIGIN</text></g><g class="relationship" transform="translate(-234.75503488031714 -65.15774552094857) rotate(517.1446475036348)"><path class="outline" fill="#A5ABB6" stroke="none" d="M 25 0.5 L 57.57736041433276 0.5 L 57.57736041433276 -0.5 L 25 -0.5 Z M 116.76876666433276 0.5 L 149.34612707866552 0.5 L 149.34612707866552 3.5 L 156.34612707866552 0 L 149.34612707866552 -3.5 L 149.34612707866552 -0.5 L 116.76876666433276 -0.5 Z"/><text text-anchor="middle" pointer-events="none" font-size="8px" fill="#000000" x="87.17306353933276" y="3" transform="rotate(180 87.17306353933276 0)" font-family="sans-serif">DESTINATION</text></g><g class="relationship" transform="translate(-205.15351434897207 -158.84079780926376) rotate(405.44885587393173)"><path class="outline" fill="#A5ABB6" stroke="none" d="M 25 0.5 L 99.83987799353889 0.5 L 99.83987799353889 -0.5 L 25 -0.5 Z M 134.2851904935389 0.5 L 209.12506848707778 0.5 L 209.12506848707778 3.5 L 216.12506848707778 0 L 209.12506848707778 -3.5 L 209.12506848707778 -0.5 L 134.2851904935389 -0.5 Z"/><text text-anchor="middle" pointer-events="none" font-size="8px" fill="#000000" x="117.06253424353889" y="3" font-family="sans-serif">ORIGIN</text></g><g class="relationship" transform="translate(-205.15351434897207 -158.84079780926376) rotate(311.9303301919998)"><path class="outline" fill="#A5ABB6" stroke="none" d="M 25 0.5 L 45.6381359020707 0.5 L 45.6381359020707 -0.5 L 25 -0.5 Z M 104.8295421520707 0.5 L 125.4676780541414 0.5 L 125.4676780541414 3.5 L 132.4676780541414 0 L 125.4676780541414 -3.5 L 125.4676780541414 -0.5 L 104.8295421520707 -0.5 Z"/><text text-anchor="middle" pointer-events="none" font-size="8px" fill="#000000" x="75.2338390270707" y="3" font-family="sans-serif">DESTINATION</text></g><g class="relationship" transform="translate(-108.3398477493261 -178.38035276715902) rotate(429.291241849814)"><path class="outline" fill="#A5ABB6" stroke="none" d="M 25 0.5 L 81.572210681232 0.5 L 81.572210681232 -0.5 L 25 -0.5 Z M 116.017523181232 0.5 L 172.589733862464 0.5 L 172.589733862464 3.5 L 179.589733862464 0 L 172.589733862464 -3.5 L 172.589733862464 -0.5 L 116.017523181232 -0.5 Z"/><text text-anchor="middle" pointer-events="none" font-size="8px" fill="#000000" x="98.794866931232" y="3" font-family="sans-serif">ORIGIN</text></g><g class="relationship" transform="translate(-108.3398477493261 -178.38035276715902) rotate(274.92464467364897)"><path class="outline" fill="#A5ABB6" stroke="none" d="M 25 0.5 L 26.70642108584299 0.5 L 26.70642108584299 -0.5 L 25 -0.5 Z M 64.26501483584299 0.5 L 65.97143592168598 0.5 L 65.97143592168598 3.5 L 72.97143592168598 0 L 65.97143592168598 -3.5 L 65.97143592168598 -0.5 L 64.26501483584299 -0.5 Z"/><text text-anchor="middle" pointer-events="none" font-size="8px" fill="#000000" x="45.48571796084299" y="3" font-family="sans-serif">DESTI…</text></g><g class="relationship" transform="translate(-133.30946340715946 222.5314446656701) rotate(294.91140035994454)"><path class="outline" fill="#A5ABB6" stroke="none" d="M 25 0.5 L 94.79542479368229 0.5 L 94.79542479368229 -0.5 L 25 -0.5 Z M 129.2407372936823 0.5 L 199.03616208736457 0.5 L 199.03616208736457 3.5 L 206.03616208736457 0 L 199.03616208736457 -3.5 L 199.03616208736457 -0.5 L 129.2407372936823 -0.5 Z"/><text text-anchor="middle" pointer-events="none" font-size="8px" fill="#000000" x="112.01808104368229" y="3" font-family="sans-serif">ORIGIN</text></g><g class="relationship" transform="translate(-133.30946340715946 222.5314446656701) rotate(476.0876468045548)"><path class="outline" fill="#A5ABB6" stroke="none" d="M 25 0.5 L 26.473120480590303 0.5 L 26.473120480590303 -0.5 L 25 -0.5 Z M 75.1449954805903 0.5 L 76.6181159611806 0.5 L 76.6181159611806 3.5 L 83.6181159611806 0 L 76.6181159611806 -3.5 L 76.6181159611806 -0.5 L 75.1449954805903 -0.5 Z"/><text text-anchor="middle" pointer-events="none" font-size="8px" fill="#000000" x="50.8090579805903" y="3" transform="rotate(180 50.8090579805903 0)" font-family="sans-serif">DESTINA…</text></g><g class="relationship" transform="translate(-168.01859121985277 129.89341806476492) rotate(318.476530757321)"><path class="outline" fill="#A5ABB6" stroke="none" d="M 25 0.5 L 67.4489082553382 0.5 L 67.4489082553382 -0.5 L 25 -0.5 Z M 101.8942207553382 0.5 L 144.3431290106764 0.5 L 144.3431290106764 3.5 L 151.3431290106764 0 L 144.3431290106764 -3.5 L 144.3431290106764 -0.5 L 101.8942207553382 -0.5 Z"/><text text-anchor="middle" pointer-events="none" font-size="8px" fill="#000000" x="84.6715645053382" y="3" font-family="sans-serif">ORIGIN</text></g><g class="relationship" transform="translate(-168.01859121985277 129.89341806476492) rotate(453.9267840520679)"><path class="outline" fill="#A5ABB6" stroke="none" d="M 25 0.5 L 62.22326529766708 0.5 L 62.22326529766708 -0.5 L 25 -0.5 Z M 121.41467154766708 0.5 L 158.63793684533417 0.5 L 158.63793684533417 3.5 L 165.63793684533417 0 L 158.63793684533417 -3.5 L 158.63793684533417 -0.5 L 121.41467154766708 -0.5 Z"/><text text-anchor="middle" pointer-events="none" font-size="8px" fill="#000000" x="91.81896842266708" y="3" transform="rotate(180 91.81896842266708 0)" font-family="sans-serif">DESTINATION</text></g><g class="relationship" transform="translate(-139.07483643003235 -85.14351180739916) rotate(403.5915743508689)"><path class="outline" fill="#A5ABB6" stroke="none" d="M 25 0.5 L 50.43941152803977 0.5 L 50.43941152803977 -0.5 L 25 -0.5 Z M 84.88472402803977 0.5 L 110.32413555607954 0.5 L 110.32413555607954 3.5 L 117.32413555607954 0 L 110.32413555607954 -3.5 L 110.32413555607954 -0.5 L 84.88472402803977 -0.5 Z"/><text text-anchor="middle" pointer-events="none" font-size="8px" fill="#000000" x="67.66206777803977" y="3" font-family="sans-serif">ORIGIN</text></g><g class="relationship" transform="translate(-139.07483643003235 -85.14351180739916) rotate(281.59141774397165)"><path class="outline" fill="#A5ABB6" stroke="none" d="M 25 0.5 L 64.31424376801955 0.5 L 64.31424376801955 -0.5 L 25 -0.5 Z M 123.50565001801955 0.5 L 162.8198937860391 0.5 L 162.8198937860391 3.5 L 169.8198937860391 0 L 162.8198937860391 -3.5 L 162.8198937860391 -0.5 L 123.50565001801955 -0.5 Z"/><text text-anchor="middle" pointer-events="none" font-size="8px" fill="#000000" x="93.90994689301955" y="3" font-family="sans-serif">DESTINATION</text></g><g class="relationship" transform="translate(-293.8494309250677 11.458912610362155) rotate(360.34039020432385)"><path class="outline" fill="#A5ABB6" stroke="none" d="M 25 0.5 L 108.20769949925614 0.5 L 108.20769949925614 -0.5 L 25 -0.5 Z M 142.65301199925614 0.5 L 225.86071149851227 0.5 L 225.86071149851227 3.5 L 232.86071149851227 0 L 225.86071149851227 -3.5 L 225.86071149851227 -0.5 L 142.65301199925614 -0.5 Z"/><text text-anchor="middle" pointer-events="none" font-size="8px" fill="#000000" x="125.43035574925614" y="3" font-family="sans-serif">ORIGIN</text></g><g class="relationship" transform="translate(-293.8494309250677 11.458912610362155) rotate(183.2749864585794)"><path class="outline" fill="#A5ABB6" stroke="none" d="M 25 0.5 L 26.259381763002622 0.5 L 26.259381763002622 -0.5 L 25 -0.5 Z M 74.93125676300262 0.5 L 76.19063852600524 0.5 L 76.19063852600524 3.5 L 83.19063852600524 0 L 76.19063852600524 -3.5 L 76.19063852600524 -0.5 L 74.93125676300262 -0.5 Z"/><text text-anchor="middle" pointer-events="none" font-size="8px" fill="#000000" x="50.59531926300262" y="3" transform="rotate(180 50.59531926300262 0)" font-family="sans-serif">DESTINA…</text></g><g class="relationship" transform="translate(199.17012605578165 74.49353139124015) rotate(194.6563913990583)"><path class="outline" fill="#A5ABB6" stroke="none" d="M 25 0.5 L 100.81376254077503 0.5 L 100.81376254077503 -0.5 L 25 -0.5 Z M 135.25907504077503 0.5 L 211.07283758155006 0.5 L 211.07283758155006 3.5 L 218.07283758155006 0 L 211.07283758155006 -3.5 L 211.07283758155006 -0.5 L 135.25907504077503 -0.5 Z"/><text text-anchor="middle" pointer-events="none" font-size="8px" fill="#000000" x="118.03641879077503" y="3" transform="rotate(180 118.03641879077503 0)" font-family="sans-serif">ORIGIN</text></g><g class="relationship" transform="translate(199.17012605578165 74.49353139124015) rotate(355.5176451147722)"><path class="outline" fill="#A5ABB6" stroke="none" d="M 25 0.5 L 81.72068289269608 0.5 L 81.72068289269608 -0.5 L 25 -0.5 Z M 140.91208914269606 0.5 L 197.63277203539215 0.5 L 197.63277203539215 3.5 L 204.63277203539215 0 L 197.63277203539215 -3.5 L 197.63277203539215 -0.5 L 140.91208914269606 -0.5 Z"/><text text-anchor="middle" pointer-events="none" font-size="8px" fill="#000000" x="111.31638601769608" y="3" font-family="sans-serif">DESTINATION</text></g><g class="relationship" transform="translate(-71.31496740319425 147.47175287983325) rotate(284.7164573766765)"><path class="outline" fill="#A5ABB6" stroke="none" d="M 25 0.5 L 48.79845442616049 0.5 L 48.79845442616049 -0.5 L 25 -0.5 Z M 83.24376692616049 0.5 L 107.04222135232098 0.5 L 107.04222135232098 3.5 L 114.04222135232098 0 L 107.04222135232098 -3.5 L 107.04222135232098 -0.5 L 83.24376692616049 -0.5 Z"/><text text-anchor="middle" pointer-events="none" font-size="8px" fill="#000000" x="66.02111067616049" y="3" font-family="sans-serif">ORIGIN</text></g><g class="relationship" transform="translate(-71.31496740319425 147.47175287983325) rotate(482.4510568480726)"><path class="outline" fill="#A5ABB6" stroke="none" d="M 25 0.5 L 69.18078745947207 0.5 L 69.18078745947207 -0.5 L 25 -0.5 Z M 128.37219370947207 0.5 L 172.55298116894414 0.5 L 172.55298116894414 3.5 L 179.55298116894414 0 L 172.55298116894414 -3.5 L 172.55298116894414 -0.5 L 128.37219370947207 -0.5 Z"/><text text-anchor="middle" pointer-events="none" font-size="8px" fill="#000000" x="98.77649058447207" y="3" transform="rotate(180 98.77649058447207 0)" font-family="sans-serif">DESTINATION</text></g><g class="relationship" transform="translate(53.751758777029345 -128.06218375249816) rotate(482.46657082719696)"><path class="outline" fill="#A5ABB6" stroke="none" d="M 25 0.5 L 62.86879750147651 0.5 L 62.86879750147651 -0.5 L 25 -0.5 Z M 97.31411000147651 0.5 L 135.18290750295301 0.5 L 135.18290750295301 3.5 L 142.18290750295301 0 L 135.18290750295301 -3.5 L 135.18290750295301 -0.5 L 97.31411000147651 -0.5 Z"/><text text-anchor="middle" pointer-events="none" font-size="8px" fill="#000000" x="80.09145375147651" y="3" transform="rotate(180 80.09145375147651 0)" font-family="sans-serif">ORIGIN</text></g><g class="relationship" transform="translate(53.751758777029345 -128.06218375249816) rotate(223.90720262175807)"><path class="outline" fill="#A5ABB6" stroke="none" d="M 25 0.5 L 73.5586302145858 0.5 L 73.5586302145858 -0.5 L 25 -0.5 Z M 132.7500364645858 0.5 L 181.3086666791716 0.5 L 181.3086666791716 3.5 L 188.3086666791716 0 L 181.3086666791716 -3.5 L 181.3086666791716 -0.5 L 132.7500364645858 -0.5 Z"/><text text-anchor="middle" pointer-events="none" font-size="8px" fill="#000000" x="103.1543333395858" y="3" transform="rotate(180 103.1543333395858 0)" font-family="sans-serif">DESTINATION</text></g><g class="relationship" transform="translate(27.609217086319685 163.67265571852846) rotate(247.1154916464431)"><path class="outline" fill="#A5ABB6" stroke="none" d="M 25 0.5 L 61.05491885008989 0.5 L 61.05491885008989 -0.5 L 25 -0.5 Z M 95.50023135008989 0.5 L 131.55515020017978 0.5 L 131.55515020017978 3.5 L 138.55515020017978 0 L 131.55515020017978 -3.5 L 131.55515020017978 -0.5 L 95.50023135008989 -0.5 Z"/><text text-anchor="middle" pointer-events="none" font-size="8px" fill="#000000" x="78.27757510008989" y="3" transform="rotate(180 78.27757510008989 0)" font-family="sans-serif">ORIGIN</text></g><g class="relationship" transform="translate(27.609217086319685 163.67265571852846) rotate(447.8327812789122)"><path class="outline" fill="#A5ABB6" stroke="none" d="M 25 0.5 L 63.898661022309284 0.5 L 63.898661022309284 -0.5 L 25 -0.5 Z M 123.09006727230928 0.5 L 161.98872829461857 0.5 L 161.98872829461857 3.5 L 168.98872829461857 0 L 161.98872829461857 -3.5 L 161.98872829461857 -0.5 L 123.09006727230928 -0.5 Z"/><text text-anchor="middle" pointer-events="none" font-size="8px" fill="#000000" x="93.49436414730928" y="3" font-family="sans-serif">DESTINATION</text></g><g class="relationship" transform="translate(-42.648427116045305 -105.87725744003198) rotate(446.79548372272967)"><path class="outline" fill="#A5ABB6" stroke="none" d="M 25 0.5 L 38.804469397513664 0.5 L 38.804469397513664 -0.5 L 25 -0.5 Z M 73.24978189751366 0.5 L 87.05425129502733 0.5 L 87.05425129502733 3.5 L 94.05425129502733 0 L 87.05425129502733 -3.5 L 87.05425129502733 -0.5 L 73.24978189751366 -0.5 Z"/><text text-anchor="middle" pointer-events="none" font-size="8px" fill="#000000" x="56.027125647513664" y="3" font-family="sans-serif">ORIGIN</text></g><g class="relationship" transform="translate(-42.648427116045305 -105.87725744003198) rotate(251.3904062938161)"><path class="outline" fill="#A5ABB6" stroke="none" d="M 25 0.5 L 56.653255153228926 0.5 L 56.653255153228926 -0.5 L 25 -0.5 Z M 115.84466140322893 0.5 L 147.49791655645785 0.5 L 147.49791655645785 3.5 L 154.49791655645785 0 L 147.49791655645785 -3.5 L 147.49791655645785 -0.5 L 115.84466140322893 -0.5 Z"/><text text-anchor="middle" pointer-events="none" font-size="8px" fill="#000000" x="86.24895827822893" y="3" transform="rotate(180 86.24895827822893 0)" font-family="sans-serif">DESTINATION</text></g><g class="relationship" transform="translate(213.06417113993467 -23.24419619555692) rotate(531.7221933274977)"><path class="outline" fill="#A5ABB6" stroke="none" d="M 25 0.5 L 105.11710945097825 0.5 L 105.11710945097825 -0.5 L 25 -0.5 Z M 139.56242195097826 0.5 L 219.6795314019565 0.5 L 219.6795314019565 3.5 L 226.6795314019565 0 L 219.6795314019565 -3.5 L 219.6795314019565 -0.5 L 139.56242195097826 -0.5 Z"/><text text-anchor="middle" pointer-events="none" font-size="8px" fill="#000000" x="122.33976570097825" y="3" transform="rotate(180 122.33976570097825 0)" font-family="sans-serif">ORIGIN</text></g><g class="relationship" transform="translate(213.06417113993467 -23.24419619555692) rotate(380.35788710523923)"><path class="outline" fill="#A5ABB6" stroke="none" d="M 25 0.5 L 81.58572698972749 0.5 L 81.58572698972749 -0.5 L 25 -0.5 Z M 140.7771332397275 0.5 L 197.36286022945498 0.5 L 197.36286022945498 3.5 L 204.36286022945498 0 L 197.36286022945498 -3.5 L 197.36286022945498 -0.5 L 140.7771332397275 -0.5 Z"/><text text-anchor="middle" pointer-events="none" font-size="8px" fill="#000000" x="111.18143011472749" y="3" font-family="sans-serif">DESTINATION</text></g></g><g class="layer nodes"><g class="node" aria-label="graph-node355" transform="translate(-35.99326996456132,12.990835985868337)"><circle class="outline" cx="0" cy="0" r="25" fill="#8DCC93" stroke="#5db665" stroke-width="2px"/><text class="caption" text-anchor="middle" pointer-events="none" x="0" y="5" font-size="10px" fill="#2A2C34" font-family="sans-serif"> LAX</text></g><g class="node" aria-label="graph-node391" transform="translate(-401.8633781396695,5.278178690677708)"><circle class="outline" cx="0" cy="0" r="25" fill="#8DCC93" stroke="#5db665" stroke-width="2px"/><text class="caption" text-anchor="middle" pointer-events="none" x="0" y="5" font-size="10px" fill="#2A2C34" font-family="sans-serif"> FAT</text></g><g class="node" aria-label="graph-node352" transform="translate(245.92897132589272,185.4237397948749)"><circle class="outline" cx="0" cy="0" r="25" fill="#8DCC93" stroke="#5db665" stroke-width="2px"/><text class="caption" text-anchor="middle" pointer-events="none" x="0" y="5" font-size="10px" fill="#2A2C34" font-family="sans-serif"> IAH</text></g><g class="node" aria-label="graph-node363" transform="translate(-181.07379561138717,320.08380847117024)"><circle class="outline" cx="0" cy="0" r="25" fill="#8DCC93" stroke="#5db665" stroke-width="2px"/><text class="caption" text-anchor="middle" pointer-events="none" x="0" y="5" font-size="10px" fill="#2A2C34" font-family="sans-serif"> SMF</text></g><g class="node" aria-label="graph-node351" transform="translate(34.94511099507369,357.52262700024636)"><circle class="outline" cx="0" cy="0" r="25" fill="#8DCC93" stroke="#5db665" stroke-width="2px"/><text class="caption" text-anchor="middle" pointer-events="none" x="0" y="5" font-size="10px" fill="#2A2C34" font-family="sans-serif"> EWR</text></g><g class="node" aria-label="graph-node375" transform="translate(235.61506119904368,-159.30102156426634)"><circle class="outline" cx="0" cy="0" r="25" fill="#8DCC93" stroke="#5db665" stroke-width="2px"/><text class="caption" text-anchor="middle" pointer-events="none" x="0" y="5" font-size="10px" fill="#2A2C34" font-family="sans-serif"> LAS</text></g><g class="node" aria-label="graph-node390" transform="translate(-99.92944340195612,-275.99012356532637)"><circle class="outline" cx="0" cy="0" r="25" fill="#8DCC93" stroke="#5db665" stroke-width="2px"/><text class="caption" text-anchor="middle" pointer-events="none" x="0" y="5" font-size="10px" fill="#2A2C34" font-family="sans-serif"> ABQ</text></g><g class="node" aria-label="graph-node392" transform="translate(428.1005545788847,56.54725353518399)"><circle class="outline" cx="0" cy="0" r="25" fill="#8DCC93" stroke="#5db665" stroke-width="2px"/><text class="caption" text-anchor="middle" pointer-events="none" x="0" y="5" font-size="10px" fill="#2A2C34" font-family="sans-serif"> TUS</text></g><g class="node" aria-label="graph-node1301" transform="translate(-261.56419561485114,103.35955709849767)"><circle class="outline" cx="0" cy="0" r="25" fill="#ECB5C9" stroke="#da7298" stroke-width="2px"/><text class="caption" text-anchor="middle" pointer-events="none" x="0" y="0" font-size="10px" fill="#2A2C34" font-family="sans-serif"> 11/3/2015</text><text class="caption" text-anchor="middle" pointer-events="none" x="0" y="10" font-size="10px" fill="#2A2C34" font-family="sans-serif"> 11:45:…</text></g><g class="node" aria-label="graph-node453" transform="translate(103.4409825303432,99.25307699229177)"><circle class="outline" cx="0" cy="0" r="25" fill="#ECB5C9" stroke="#da7298" stroke-width="2px"/><text class="caption" text-anchor="middle" pointer-events="none" x="0" y="5" font-size="10px" fill="#2A2C34" font-family="sans-serif"> 11/30/20…</text></g><g class="node" aria-label="graph-node1345" transform="translate(-35.925492392248714,239.4790539321728)"><circle class="outline" cx="0" cy="0" r="25" fill="#ECB5C9" stroke="#da7298" stroke-width="2px"/><text class="caption" text-anchor="middle" pointer-events="none" x="0" y="0" font-size="10px" fill="#2A2C34" font-family="sans-serif"> 11/2/2015</text><text class="caption" text-anchor="middle" pointer-events="none" x="0" y="10" font-size="10px" fill="#2A2C34" font-family="sans-serif"> 11:49:…</text></g><g class="node" aria-label="graph-node485" transform="translate(119.10856807342903,197.28057729262068)"><circle class="outline" cx="0" cy="0" r="25" fill="#ECB5C9" stroke="#da7298" stroke-width="2px"/><text class="caption" text-anchor="middle" pointer-events="none" x="0" y="5" font-size="10px" fill="#2A2C34" font-family="sans-serif"> 11/30/20…</text></g><g class="node" aria-label="graph-node1009" transform="translate(119.14995843647071,-53.82400393359684)"><circle class="outline" cx="0" cy="0" r="25" fill="#ECB5C9" stroke="#da7298" stroke-width="2px"/><text class="caption" text-anchor="middle" pointer-events="none" x="0" y="5" font-size="10px" fill="#2A2C34" font-family="sans-serif"> 11/29/20…</text></g><g class="node" aria-label="graph-node1309" transform="translate(-197.6519254905681,27.10263759981843)"><circle class="outline" cx="0" cy="0" r="25" fill="#ECB5C9" stroke="#da7298" stroke-width="2px"/><text class="caption" text-anchor="middle" pointer-events="none" x="0" y="0" font-size="10px" fill="#2A2C34" font-family="sans-serif"> 11/1/2015</text><text class="caption" text-anchor="middle" pointer-events="none" x="0" y="10" font-size="10px" fill="#2A2C34" font-family="sans-serif"> 02:27:…</text></g><g class="node" aria-label="graph-node1277" transform="translate(-13.748555521106278,-200.04450402653092)"><circle class="outline" cx="0" cy="0" r="25" fill="#ECB5C9" stroke="#da7298" stroke-width="2px"/><text class="caption" text-anchor="middle" pointer-events="none" x="0" y="0" font-size="10px" fill="#2A2C34" font-family="sans-serif"> 11/1/2015</text><text class="caption" text-anchor="middle" pointer-events="none" x="0" y="10" font-size="10px" fill="#2A2C34" font-family="sans-serif"> 05:43:…</text></g><g class="node" aria-label="graph-node1269" transform="translate(81.28969868655936,-221.1446006679536)"><circle class="outline" cx="0" cy="0" r="25" fill="#ECB5C9" stroke="#da7298" stroke-width="2px"/><text class="caption" text-anchor="middle" pointer-events="none" x="0" y="0" font-size="10px" fill="#2A2C34" font-family="sans-serif"> 11/2/2015</text><text class="caption" text-anchor="middle" pointer-events="none" x="0" y="10" font-size="10px" fill="#2A2C34" font-family="sans-serif"> 04:43:…</text></g><g class="node" aria-label="graph-node1305" transform="translate(-234.75503488031714,-65.15774552094857)"><circle class="outline" cx="0" cy="0" r="25" fill="#ECB5C9" stroke="#da7298" stroke-width="2px"/><text class="caption" text-anchor="middle" pointer-events="none" x="0" y="0" font-size="10px" fill="#2A2C34" font-family="sans-serif"> 11/2/2015</text><text class="caption" text-anchor="middle" pointer-events="none" x="0" y="10" font-size="10px" fill="#2A2C34" font-family="sans-serif"> 09:18:…</text></g><g class="node" aria-label="graph-node1281" transform="translate(-205.15351434897207,-158.84079780926376)"><circle class="outline" cx="0" cy="0" r="25" fill="#ECB5C9" stroke="#da7298" stroke-width="2px"/><text class="caption" text-anchor="middle" pointer-events="none" x="0" y="0" font-size="10px" fill="#2A2C34" font-family="sans-serif"> 11/3/2015</text><text class="caption" text-anchor="middle" pointer-events="none" x="0" y="10" font-size="10px" fill="#2A2C34" font-family="sans-serif"> 21:46:…</text></g><g class="node" aria-label="graph-node1317" transform="translate(-108.3398477493261,-178.38035276715902)"><circle class="outline" cx="0" cy="0" r="25" fill="#ECB5C9" stroke="#da7298" stroke-width="2px"/><text class="caption" text-anchor="middle" pointer-events="none" x="0" y="0" font-size="10px" fill="#2A2C34" font-family="sans-serif"> 11/3/2015</text><text class="caption" text-anchor="middle" pointer-events="none" x="0" y="10" font-size="10px" fill="#2A2C34" font-family="sans-serif"> 23:26:…</text></g><g class="node" aria-label="graph-node1357" transform="translate(-133.30946340715946,222.5314446656701)"><circle class="outline" cx="0" cy="0" r="25" fill="#ECB5C9" stroke="#da7298" stroke-width="2px"/><text class="caption" text-anchor="middle" pointer-events="none" x="0" y="0" font-size="10px" fill="#2A2C34" font-family="sans-serif"> 11/3/2015</text><text class="caption" text-anchor="middle" pointer-events="none" x="0" y="10" font-size="10px" fill="#2A2C34" font-family="sans-serif"> 13:44:…</text></g><g class="node" aria-label="graph-node1353" transform="translate(-168.01859121985277,129.89341806476492)"><circle class="outline" cx="0" cy="0" r="25" fill="#ECB5C9" stroke="#da7298" stroke-width="2px"/><text class="caption" text-anchor="middle" pointer-events="none" x="0" y="0" font-size="10px" fill="#2A2C34" font-family="sans-serif"> 11/4/2015</text><text class="caption" text-anchor="middle" pointer-events="none" x="0" y="10" font-size="10px" fill="#2A2C34" font-family="sans-serif"> 05:06:…</text></g><g class="node" aria-label="graph-node1321" transform="translate(-139.07483643003235,-85.14351180739916)"><circle class="outline" cx="0" cy="0" r="25" fill="#ECB5C9" stroke="#da7298" stroke-width="2px"/><text class="caption" text-anchor="middle" pointer-events="none" x="0" y="0" font-size="10px" fill="#2A2C34" font-family="sans-serif"> 11/1/2015</text><text class="caption" text-anchor="middle" pointer-events="none" x="0" y="10" font-size="10px" fill="#2A2C34" font-family="sans-serif"> 17:17:…</text></g><g class="node" aria-label="graph-node1313" transform="translate(-293.8494309250677,11.458912610362155)"><circle class="outline" cx="0" cy="0" r="25" fill="#ECB5C9" stroke="#da7298" stroke-width="2px"/><text class="caption" text-anchor="middle" pointer-events="none" x="0" y="0" font-size="10px" fill="#2A2C34" font-family="sans-serif"> 11/4/2015</text><text class="caption" text-anchor="middle" pointer-events="none" x="0" y="10" font-size="10px" fill="#2A2C34" font-family="sans-serif"> 15:13:…</text></g><g class="node" aria-label="graph-node1329" transform="translate(199.17012605578165,74.49353139124015)"><circle class="outline" cx="0" cy="0" r="25" fill="#ECB5C9" stroke="#da7298" stroke-width="2px"/><text class="caption" text-anchor="middle" pointer-events="none" x="0" y="0" font-size="10px" fill="#2A2C34" font-family="sans-serif"> 11/1/2015</text><text class="caption" text-anchor="middle" pointer-events="none" x="0" y="10" font-size="10px" fill="#2A2C34" font-family="sans-serif"> 05:51:…</text></g><g class="node" aria-label="graph-node1349" transform="translate(-71.31496740319425,147.47175287983325)"><circle class="outline" cx="0" cy="0" r="25" fill="#ECB5C9" stroke="#da7298" stroke-width="2px"/><text class="caption" text-anchor="middle" pointer-events="none" x="0" y="0" font-size="10px" fill="#2A2C34" font-family="sans-serif"> 11/1/2015</text><text class="caption" text-anchor="middle" pointer-events="none" x="0" y="10" font-size="10px" fill="#2A2C34" font-family="sans-serif"> 12:26:…</text></g><g class="node" aria-label="graph-node1273" transform="translate(53.751758777029345,-128.06218375249816)"><circle class="outline" cx="0" cy="0" r="25" fill="#ECB5C9" stroke="#da7298" stroke-width="2px"/><text class="caption" text-anchor="middle" pointer-events="none" x="0" y="0" font-size="10px" fill="#2A2C34" font-family="sans-serif"> 11/4/2015</text><text class="caption" text-anchor="middle" pointer-events="none" x="0" y="10" font-size="10px" fill="#2A2C34" font-family="sans-serif"> 15:09:…</text></g><g class="node" aria-label="graph-node893" transform="translate(27.609217086319685,163.67265571852846)"><circle class="outline" cx="0" cy="0" r="25" fill="#ECB5C9" stroke="#da7298" stroke-width="2px"/><text class="caption" text-anchor="middle" pointer-events="none" x="0" y="5" font-size="10px" fill="#2A2C34" font-family="sans-serif"> 11/29/20…</text></g><g class="node" aria-label="graph-node1325" transform="translate(-42.648427116045305,-105.87725744003198)"><circle class="outline" cx="0" cy="0" r="25" fill="#ECB5C9" stroke="#da7298" stroke-width="2px"/><text class="caption" text-anchor="middle" pointer-events="none" x="0" y="0" font-size="10px" fill="#2A2C34" font-family="sans-serif"> 11/2/2015</text><text class="caption" text-anchor="middle" pointer-events="none" x="0" y="10" font-size="10px" fill="#2A2C34" font-family="sans-serif"> 15:15:…</text></g><g class="node" aria-label="graph-node1333" transform="translate(213.06417113993467,-23.24419619555692)"><circle class="outline" cx="0" cy="0" r="25" fill="#ECB5C9" stroke="#da7298" stroke-width="2px"/><text class="caption" text-anchor="middle" pointer-events="none" x="0" y="0" font-size="10px" fill="#2A2C34" font-family="sans-serif"> 11/2/2015</text><text class="caption" text-anchor="middle" pointer-events="none" x="0" y="10" font-size="10px" fill="#2A2C34" font-family="sans-serif"> 09:52:…</text></g></g></svg>