<svg xmlns="http://www.w3.org/2000/svg" width="384.9396057128906" height="198.17897033691406" viewBox="-332.9307861328125 -117.05496215820312 384.9396057128906 198.17897033691406"><title>Neo4j Graph Visualization</title><desc>Created using Neo4j (http://www.neo4j.com/)</desc><g class="layer relationships"><g class="relationship" transform="translate(-47.06829917563052 38.16994224497348) rotate(299.0380161042141)"><path class="outline" fill="#A5ABB6" stroke="none" d="M 25 0.5 L 51.463787440326925 0.5 L 51.463787440326925 -0.5 L 25 -0.5 Z M 85.90909994032693 0.5 L 112.37288738065385 0.5 L 112.37288738065385 3.5 L 119.37288738065385 0 L 112.37288738065385 -3.5 L 112.37288738065385 -0.5 L 85.90909994032693 -0.5 Z"/><text text-anchor="middle" pointer-events="none" font-size="8px" fill="#000000" x="68.68644369032693" y="3" font-family="sans-serif">ORIGIN</text></g><g class="relationship" transform="translate(-47.06829917563052 38.16994224497348) rotate(230.2670060072645)"><path class="outline" fill="#A5ABB6" stroke="none" d="M 25 0.5 L 26.642452566823323 0.5 L 26.642452566823323 -0.5 L 25 -0.5 Z M 81.83385881682332 0.5 L 83.47631138364665 0.5 L 83.47631138364665 3.5 L 90.47631138364665 0 L 83.47631138364665 -3.5 L 83.47631138364665 -0.5 L 81.83385881682332 -0.5 Z"/><text text-anchor="middle" pointer-events="none" font-size="8px" fill="#000000" x="54.23815569182332" y="3" transform="rotate(180 54.23815569182332 0)" font-family="sans-serif">DESTINATI…</text></g><g class="relationship" transform="translate(-216.0980976062161 52.124013274711984) rotate(312.8180702442831)"><path class="outline" fill="#A5ABB6" stroke="none" d="M 25 0.5 L 49.32289598030657 0.5 L 49.32289598030657 -0.5 L 25 -0.5 Z M 83.76820848030657 0.5 L 108.09110446061314 0.5 L 108.09110446061314 3.5 L 115.09110446061314 0 L 108.09110446061314 -3.5 L 108.09110446061314 -0.5 L 83.76820848030657 -0.5 Z"/><text text-anchor="middle" pointer-events="none" font-size="8px" fill="#000000" x="66.54555223030657" y="3" font-family="sans-serif">ORIGIN</text></g><g class="relationship" transform="translate(-216.0980976062161 52.124013274711984) rotate(235.1931049613437)"><path class="outline" fill="#A5ABB6" stroke="none" d="M 25 0.5 L 43.840853856272716 0.5 L 43.840853856272716 -0.5 L 25 -0.5 Z M 103.03226010627272 0.5 L 121.87311396254543 0.5 L 121.87311396254543 3.5 L 128.87311396254543 0 L 121.87311396254543 -3.5 L 121.87311396254543 -0.5 L 103.03226010627272 -0.5 Z"/><text text-anchor="middle" pointer-events="none" font-size="8px" fill="#000000" x="73.43655698127272" y="3" transform="rotate(180 73.43655698127272 0)" font-family="sans-serif">DESTINATION</text></g></g><g class="layer nodes"><g class="node" aria-label="graph-node371" transform="translate(23.0088319530704,-88.05496141273511)"><circle class="outline" cx="0" cy="0" r="25" fill="#8DCC93" stroke="#5db665" stroke-width="2px"/><text class="caption" text-anchor="middle" pointer-events="none" x="0" y="5" font-size="10px" fill="#2A2C34" font-family="sans-serif"> MSN</text></g><g class="node" aria-label="graph-node418" transform="translate(-303.9307762471684,-74.21820359394081)"><circle class="outline" cx="0" cy="0" r="25" fill="#8DCC93" stroke="#5db665" stroke-width="2px"/><text class="caption" text-anchor="middle" pointer-events="none" x="0" y="5" font-size="10px" fill="#2A2C34" font-family="sans-serif"> GRR</text></g><g class="node" aria-label="graph-node621" transform="translate(-47.06829917563052,38.16994224497348)"><circle class="outline" cx="0" cy="0" r="25" fill="#ECB5C9" stroke="#da7298" stroke-width="2px"/><text class="caption" text-anchor="middle" pointer-events="none" x="0" y="5" font-size="10px" fill="#2A2C34" font-family="sans-serif"> 11/30/20…</text></g><g class="node" aria-label="graph-node357" transform="translate(-120.88200146648543,-50.63498917716074)"><circle class="outline" cx="0" cy="0" r="25" fill="#8DCC93" stroke="#5db665" stroke-width="2px"/><text class="caption" text-anchor="middle" pointer-events="none" x="0" y="5" font-size="10px" fill="#2A2C34" font-family="sans-serif"> ORD</text></g><g class="node" aria-label="graph-node1201" transform="translate(-216.0980976062161,52.124013274711984)"><circle class="outline" cx="0" cy="0" r="25" fill="#ECB5C9" stroke="#da7298" stroke-width="2px"/><text class="caption" text-anchor="middle" pointer-events="none" x="0" y="5" font-size="10px" fill="#2A2C34" font-family="sans-serif"> 11/17/20…</text></g></g></svg>